#!OML:ASF F:\VICON\USERDATA\INSTALL\rory3\rory3.ASF
:FULLY-SPECIFIED
:DEGREES
353
root -0.116808 18.1688 0.603693 -181.701 6.74996 -181.149
lowerback 10.3788 1.37604 -0.946386
upperback 0.34985 1.82552 0.783703
thorax -5.51321 0.959992 1.07599
lowerneck -22.0626 -5.74245 -11.4627
upperneck 30.3858 -5.245 7.1702
head 14.7816 -2.13974 4.03489
rclavicle 7.20594e-016 1.59028e-014
rhumerus -31.7077 -5.95155 -84.8005
rradius 34.2337
rwrist 6.14814
rhand -13.9496 8.66747
rfingers 7.12502
rthumb 12.1777 -20.9581
lclavicle 7.20594e-016 1.59028e-014
lhumerus -34.2432 6.12645 82.5076
lradius 32.6499
lwrist -7.1118
lhand -18.3065 26.0793
lfingers 7.12502
lthumb 7.97451 55.9088
rfemur -6.38065 -1.35498 16.2283
rtibia 33.6209
rfoot -17.7619 -4.01754
rtoes -7.03197
lfemur 2.55737 0.284803 -24.4652
ltibia 7.44481
lfoot -3.59914 0.0933226
ltoes 4.74983
354
root -0.118732 18.1657 0.584034 -181.786 6.48203 -181.23
lowerback 10.3131 1.37008 -1.1131
upperback 0.412968 1.79676 0.726368
thorax -5.41245 0.949414 1.11654
lowerneck -22.2871 -5.77336 -11.3354
upperneck 30.5449 -5.27032 7.04742
head 14.8973 -2.14912 3.96202
rclavicle 1.49585e-014 -9.93923e-015
rhumerus -31.6682 -6.05917 -84.8458
rradius 34.151
rwrist 6.30555
rhand -14.1117 8.67995
rfingers 7.12502
rthumb 12.0214 -20.9548
lclavicle 1.49585e-014 -9.93923e-015
lhumerus -34.1776 6.08275 82.4164
lradius 32.6273
lwrist -7.19911
lhand -18.3617 26.0225
lfingers 7.12502
lthumb 7.92122 55.854
rfemur -6.53332 -1.19969 16.3634
rtibia 33.5741
rfoot -18.5905 -3.79487
rtoes -9.6152
lfemur 2.70188 0.355259 -24.5681
ltibia 7.44427
lfoot -3.6876 -0.201238
ltoes 4.9999
355
root -0.11836 18.1585 0.562642 -181.888 6.28726 -181.422
lowerback 10.2356 1.39199 -1.43093
upperback 0.455834 1.7874 0.676932
thorax -5.33181 0.951738 1.24753
lowerneck -22.4297 -5.79754 -11.3682
upperneck 30.7162 -5.27257 7.06561
head 15.0101 -2.14589 3.98312
rclavicle 1.98785e-015 -1.11319e-014
rhumerus -31.6368 -6.03596 -84.8651
rradius 34.0209
rwrist 6.39589
rhand -14.3262 8.62364
rfingers 7.12502
rthumb 11.8146 -21.0231
lclavicle 1.98785e-015 -1.11319e-014
lhumerus -34.1841 6.00752 82.419
lradius 32.66
lwrist -7.13568
lhand -18.311 26.1166
lfingers 7.12502
lthumb 7.97018 55.9463
rfemur -6.71556 -0.931554 16.3724
rtibia 33.4992
rfoot -18.9399 -3.77166
rtoes -10.5062
lfemur 2.8746 0.504697 -24.7828
ltibia 7.40344
lfoot -3.76989 -0.516222
ltoes 5.12004
356
root -0.11866 18.1525 0.542345 -181.961 6.07821 -181.539
lowerback 10.1837 1.40587 -1.62835
upperback 0.441945 1.77916 0.623175
thorax -5.32133 0.951282 1.30478
lowerneck -22.4347 -5.77771 -11.3735
upperneck 30.7851 -5.26539 7.16738
head 15.0458 -2.12419 4.03375
rclavicle -9.11925e-015 1.31198e-014
rhumerus -31.6981 -6.07774 -84.884
rradius 33.8528
rwrist 6.5147
rhand -14.3261 8.47567
rfingers 7.12502
rthumb 11.8146 -21.1711
lclavicle -9.11925e-015 1.31198e-014
lhumerus -34.301 5.86598 82.4012
lradius 32.708
lwrist -7.03228
lhand -18.449 25.8514
lfingers 7.12502
lthumb 7.83696 55.6861
rfemur -6.87009 -0.60376 16.4483
rtibia 33.3292
rfoot -19.0008 -3.81872
rtoes -9.30501
lfemur 2.87007 0.626992 -24.9191
ltibia 7.65968
lfoot -3.98723 -0.781878
ltoes 4.93499
357
root -0.11786 18.1471 0.526181 -182.028 5.81221 -181.506
lowerback 10.1916 1.39592 -1.66774
upperback 0.423649 1.75995 0.612496
thorax -5.34516 0.942658 1.31824
lowerneck -22.7255 -5.72821 -11.2014
upperneck 30.9285 -5.18221 7.03191
head 15.1541 -2.08426 3.96814
rclavicle 2.79541e-014 2.38542e-015
rhumerus -31.8053 -6.17061 -84.8519
rradius 33.7702
rwrist 6.62799
rhand -14.0266 8.25055
rfingers 7.12502
rthumb 12.1035 -21.3794
lclavicle 2.79541e-014 2.38542e-015
lhumerus -34.3861 5.75631 82.3599
lradius 32.6652
lwrist -7.05
lhand -18.5648 25.1941
lfingers 7.12502
lthumb 7.7252 55.033
rfemur -6.95302 -0.31866 16.7071
rtibia 33.0528
rfoot -19.0488 -3.94057
rtoes -8.20051
lfemur 2.77829 0.681674 -24.8702
ltibia 8.09888
lfoot -4.26537 -1.03209
ltoes 5.21007
358
root -0.118054 18.1397 0.513094 -182.068 5.55551 -181.282
lowerback 10.1482 1.35761 -1.48422
upperback 0.446352 1.73399 0.645232
thorax -5.29152 0.925825 1.2542
lowerneck -22.5706 -5.71911 -11.2741
upperneck 30.8623 -5.15623 7.04549
head 15.0895 -2.08029 3.98956
rclavicle 1.2921e-015 -1.70955e-014
rhumerus -31.8663 -6.22934 -84.8567
rradius 33.7979
rwrist 6.69284
rhand -13.8813 8.12045
rfingers 7.12502
rthumb 12.2435 -21.5012
lclavicle 1.2921e-015 -1.70955e-014
lhumerus -34.34 5.68615 82.3423
lradius 32.5952
lwrist -7.02024
lhand -18.6439 24.9613
lfingers 7.12502
lthumb 7.64883 54.803
rfemur -7.03145 -0.081328 17.1751
rtibia 32.6787
rfoot -19.0414 -4.14365
rtoes -7.83733
lfemur 2.63891 0.735454 -24.6159
ltibia 8.59973
lfoot -4.54296 -1.28118
ltoes 5.24792
359
root -0.120866 18.13 0.499275 -182.164 5.25753 -181.236
lowerback 10.1621 1.30759 -1.40731
upperback 0.469526 1.67453 0.589937
thorax -5.26892 0.894263 1.16188
lowerneck -22.4221 -5.71582 -11.4076
upperneck 30.7924 -5.18751 7.26928
head 15.0413 -2.07658 4.10077
rclavicle -1.74061e-014 -9.54166e-015
rhumerus -31.9357 -6.27488 -84.9124
rradius 33.7924
rwrist 6.68446
rhand -13.8866 8.16579
rfingers 7.12502
rthumb 12.2384 -21.4561
lclavicle -1.74061e-014 -9.54166e-015
lhumerus -34.3111 5.63523 82.2792
lradius 32.5447
lwrist -6.93522
lhand -18.5768 25.4057
lfingers 7.12502
lthumb 7.71359 55.245
rfemur -7.07545 0.125668 17.393
rtibia 32.2558
rfoot -18.8501 -4.19777
rtoes -6.42935
lfemur 2.54282 0.75816 -24.5727
ltibia 9.08724
lfoot -4.81165 -1.53582
ltoes 5.1765
360
root -0.122983 18.1195 0.481664 -182.238 4.979 -181.446
lowerback 10.1652 1.29604 -1.59727
upperback 0.431956 1.62813 0.464588
thorax -5.31019 0.874086 1.1443
lowerneck -22.4372 -5.73977 -11.3777
upperneck 30.8901 -5.21964 7.26159
head 15.0926 -2.08302 4.09164
rclavicle -1.18153e-014 -2.5842e-015
rhumerus -32.0454 -6.34557 -84.9352
rradius 33.6477
rwrist 6.60094
rhand -13.9674 8.37987
rfingers 7.12502
rthumb 12.1606 -21.2467
lclavicle -1.18153e-014 -2.5842e-015
lhumerus -34.424 5.68883 82.1394
lradius 32.4788
lwrist -6.97252
lhand -18.0735 26.4585
lfingers 7.12502
lthumb 8.19938 56.2794
rfemur -7.14031 0.339138 17.2884
rtibia 31.783
rfoot -18.6572 -4.0191
rtoes -4.14488
lfemur 2.41408 0.807907 -24.8175
ltibia 9.57504
lfoot -5.06657 -1.80404
ltoes 5.34239
361
root -0.124172 18.1089 0.46335 -182.254 4.79242 -181.748
lowerback 10.0968 1.34579 -1.89102
upperback 0.360848 1.64978 0.326386
thorax -5.35148 0.889447 1.16278
lowerneck -22.3575 -5.74618 -11.2919
upperneck 30.9644 -5.21148 7.13261
head 15.1006 -2.08284 4.02799
rclavicle -1.71452e-014 3.18055e-015
rhumerus -32.1527 -6.51618 -84.883
rradius 33.4034
rwrist 6.60052
rhand -13.9758 8.46258
rfingers 7.12502
rthumb 12.1525 -21.1645
lclavicle -1.71452e-014 3.18055e-015
lhumerus -34.5304 5.65365 82.0615
lradius 32.3627
lwrist -7.05238
lhand -17.6729 27.2722
lfingers 7.12502
lthumb 8.58604 57.0776
rfemur -7.26227 0.381097 17.0874
rtibia 31.2377
rfoot -18.9367 -3.39341
rtoes -4.33675
lfemur 2.22307 0.948348 -25.1594
ltibia 10.0509
lfoot -5.29185 -1.97099
ltoes 5.52754
